<?xml version="1.0" standalone="no"?>
<!DOCTYPE svg PUBLIC "-//W3C//DTD SVG 20010904//EN"
 "http://www.w3.org/TR/2001/REC-SVG-20010904/DTD/svg10.dtd">
<svg version="1.0" xmlns="http://www.w3.org/2000/svg"
 width="300.000000pt" height="300.000000pt" viewBox="0 0 300.000000 300.000000"
 preserveAspectRatio="xMidYMid meet">
<metadata>
Created by potrace 1.10, written by Peter Selinger 2001-2011
</metadata>
<g transform="translate(0.000000,300.000000) scale(0.100000,-0.100000)"
fill="#000000" stroke="none">
<path d="M1475 2648 c-3 -8 -4 -75 -3 -149 l3 -134 25 0 25 0 0 145 c0 143 0
145 -23 148 -12 2 -24 -3 -27 -10z"/>
<path d="M1193 2613 c-19 -7 -16 -24 23 -151 39 -125 51 -146 77 -136 24 9 22
24 -22 158 -38 115 -52 138 -78 129z"/>
<path d="M1781 2611 c-13 -8 -91 -231 -91 -262 0 -22 30 -33 45 -17 7 7 29 68
50 136 34 106 37 124 24 137 -8 9 -19 11 -28 6z"/>
<path d="M920 2465 c-10 -12 1 -34 66 -124 44 -61 85 -113 93 -116 18 -7 43
15 36 33 -12 31 -158 222 -170 222 -7 0 -18 -7 -25 -15z"/>
<path d="M1966 2376 c-42 -57 -78 -111 -81 -118 -7 -18 18 -40 36 -33 8 3 49
55 93 116 65 90 76 112 66 124 -7 8 -18 15 -25 15 -7 0 -47 -47 -89 -104z"/>
<path d="M1335 2271 c-305 -87 -499 -408 -431 -712 22 -98 52 -162 134 -278
151 -215 192 -311 192 -455 0 -75 3 -88 24 -113 l24 -28 222 0 222 0 24 28
c21 24 24 38 24 105 0 144 37 237 175 437 101 147 121 186 146 282 36 143 17
304 -53 436 -70 134 -234 262 -384 301 -83 21 -240 20 -319 -3z m329 -61 c228
-71 386 -286 386 -525 0 -138 -31 -218 -153 -396 -91 -133 -147 -237 -168
-309 -6 -25 -15 -88 -18 -140 l-6 -95 -205 0 -205 0 -6 100 c-10 161 -51 256
-201 466 -104 147 -138 239 -138 377 0 264 198 494 463 542 68 12 175 3 251
-20z"/>
<path d="M1379 2061 c-142 -45 -242 -162 -270 -315 -11 -57 -10 -69 2 -82 27
-26 46 -7 52 53 16 155 142 285 291 300 58 6 82 22 72 48 -8 21 -76 19 -147
-4z"/>
<path d="M710 2255 c-6 -8 -9 -18 -6 -24 3 -5 53 -44 111 -86 105 -76 138 -88
143 -50 1 15 -24 39 -107 98 -59 42 -113 77 -118 77 -6 0 -16 -7 -23 -15z"/>
<path d="M2148 2192 c-82 -58 -107 -82 -105 -97 4 -38 37 -26 142 50 58 42
108 81 111 86 7 12 -14 39 -30 39 -6 0 -59 -35 -118 -78z"/>
<path d="M580 1995 c-7 -8 -10 -21 -7 -29 8 -19 266 -101 279 -88 32 32 -8 53
-243 127 -9 3 -22 -1 -29 -10z"/>
<path d="M2270 1966 c-124 -42 -149 -61 -122 -88 13 -13 271 68 279 88 5 14
-13 45 -26 43 -3 0 -62 -20 -131 -43z"/>
<path d="M523 1694 c-13 -34 24 -44 152 -44 128 0 162 10 149 43 -5 15 -23 17
-150 17 -125 0 -145 -2 -151 -16z"/>
<path d="M2176 1693 c-13 -33 21 -43 149 -43 128 0 165 10 152 44 -6 14 -26
16 -151 16 -127 0 -145 -2 -150 -17z"/>
<path d="M700 1456 c-105 -36 -126 -46 -128 -64 -2 -12 3 -24 10 -27 7 -3 72
14 143 37 100 33 131 47 133 62 4 16 -13 37 -28 35 -3 0 -61 -20 -130 -43z"/>
<path d="M2152 1491 c-8 -5 -12 -17 -10 -27 2 -15 33 -29 133 -62 72 -23 136
-40 143 -37 7 3 12 15 10 27 -3 20 -68 47 -248 103 -8 2 -21 1 -28 -4z"/>
<path d="M816 1225 c-121 -91 -118 -88 -110 -108 11 -30 37 -19 144 59 78 56
105 81 105 97 0 41 -37 28 -139 -48z"/>
<path d="M2044 1285 c-3 -8 -4 -19 -2 -24 5 -17 211 -161 229 -161 14 0 29 18
29 35 0 9 -222 165 -235 165 -9 0 -18 -7 -21 -15z"/>
<path d="M1264 635 c-4 -8 -4 -22 0 -30 5 -13 38 -15 238 -13 l233 3 0 25 0
25 -233 3 c-200 2 -233 0 -238 -13z"/>
<path d="M1274 535 c-4 -8 -1 -22 6 -30 18 -22 422 -22 440 0 7 8 10 22 6 30
-8 23 -444 23 -452 0z"/>
<path d="M1317 443 c26 -73 79 -103 183 -103 83 0 129 17 157 56 46 67 53 64
-157 64 -176 0 -189 -1 -183 -17z m293 -33 c0 -19 -40 -30 -110 -30 -72 0
-116 13 -105 31 8 12 215 12 215 -1z"/>
</g>
</svg>
